<?xml version="1.0" standalone="no"?>
<!DOCTYPE svg PUBLIC "-//W3C//DTD SVG 20010904//EN"
 "http://www.w3.org/TR/2001/REC-SVG-20010904/DTD/svg10.dtd">
<svg version="1.0" xmlns="http://www.w3.org/2000/svg"
 width="300.000000pt" height="240.000000pt" viewBox="0 0 300.000000 240.000000"
 preserveAspectRatio="xMidYMid meet">
<metadata>
Created by potrace 1.10, written by Peter Selinger 2001-2011
</metadata>
<g transform="translate(0.000000,240.000000) scale(0.050000,-0.050000)"
fill="#000000" stroke="none">
<path d="M3058 4619 c-517 -82 -959 -187 -2158 -512 -619 -168 -740 -209 -740
-248 0 -27 -59 -41 801 193 430 117 785 209 790 203 16 -15 14 -2891 -2 -3105
l-15 -200 -208 -99 c-345 -164 -1046 -633 -1046 -700 0 -41 94 -117 124 -99
14 9 98 72 186 140 813 626 1663 940 2348 868 207 -22 215 -21 184 36 -79 147
-786 132 -1277 -28 -80 -26 -148 -48 -151 -48 -2 0 2 115 9 255 7 140 14 882
15 1647 l2 1393 65 12 c36 6 209 43 385 82 176 38 451 89 610 113 278 41 400
77 400 119 0 25 -45 22 -322 -22z"/>
<path d="M5390 3638 c-21 -87 -20 -164 2 -172 14 -4 27 30 34 88 12 102 -15
166 -36 84z"/>
<path d="M5581 3497 c-66 -53 -97 -89 -84 -102 22 -22 220 120 222 160 2 42
-29 29 -138 -58z"/>
<path d="M5194 3075 c-186 -598 -282 -925 -353 -1195 -72 -276 -77 -286 -87
-200 -6 50 -40 338 -75 640 -79 685 -111 866 -161 912 -58 52 -63 27 -29 -155
46 -253 170 -1296 184 -1561 12 -211 18 -239 60 -279 59 -55 49 -75 126 253
73 311 226 843 392 1363 60 189 109 356 109 372 0 26 -60 95 -82 95 -5 0 -43
-110 -84 -245z"/>
<path d="M4024 3224 c-241 -104 -427 -271 -573 -513 l-65 -108 -40 84 c-52
106 -141 213 -178 213 -41 0 -35 -23 32 -114 155 -210 299 -862 300 -1358 0
-208 6 -225 98 -278 79 -45 -21 948 -127 1246 -83 235 292 690 677 820 140 47
159 64 70 63 -37 0 -125 -25 -194 -55z"/>
<path d="M5530 3260 c7 -11 57 -20 111 -20 55 0 99 9 99 20 0 11 -50 20 -111
20 -69 0 -107 -8 -99 -20z"/>
</g>
</svg>
